REM MD5 6ccbe66b5f1647fcce167293568b0543
FILE "Super Puzzle Fighter II X (Japan).bin" BINARY
  TRACK 01 MODE2/2352
    INDEX 01 00:00:00
  TRACK 02 AUDIO
    INDEX 00 49:24:65
    INDEX 01 49:26:65
  TRACK 03 AUDIO
    INDEX 00 49:48:38
    INDEX 01 49:50:38
  TRACK 04 AUDIO
    INDEX 00 54:05:38
    INDEX 01 54:07:38
REM LEADOUT 57:37:38
